<svg id="visual" viewBox="0 0 960 300" width="960" height="300" xmlns="http://www.w3.org/2000/svg" xmlns:xlink="http://www.w3.org/1999/xlink" version="1.1"><rect x="0" y="0" width="960" height="300" fill="#202731"></rect><path d="M0 73L12.3 78.7C24.7 84.3 49.3 95.7 74 115.8C98.7 136 123.3 165 148 162C172.7 159 197.3 124 221.8 120.8C246.3 117.7 270.7 146.3 295.2 159.2C319.7 172 344.3 169 369 149C393.7 129 418.3 92 443 97.8C467.7 103.7 492.3 152.3 517 155C541.7 157.7 566.3 114.3 591 99.8C615.7 85.3 640.3 99.7 664.8 98.7C689.3 97.7 713.7 81.3 738.2 77C762.7 72.7 787.3 80.3 812 100.7C836.7 121 861.3 154 886 163.5C910.7 173 935.3 159 947.7 152L960 145L960 301L947.7 301C935.3 301 910.7 301 886 301C861.3 301 836.7 301 812 301C787.3 301 762.7 301 738.2 301C713.7 301 689.3 301 664.8 301C640.3 301 615.7 301 591 301C566.3 301 541.7 301 517 301C492.3 301 467.7 301 443 301C418.3 301 393.7 301 369 301C344.3 301 319.7 301 295.2 301C270.7 301 246.3 301 221.8 301C197.3 301 172.7 301 148 301C123.3 301 98.7 301 74 301C49.3 301 24.7 301 12.3 301L0 301Z" fill="#fa7268"></path><path d="M0 223L12.3 206.7C24.7 190.3 49.3 157.7 74 149.5C98.7 141.3 123.3 157.7 148 159C172.7 160.3 197.3 146.7 221.8 155.2C246.3 163.7 270.7 194.3 295.2 195.5C319.7 196.7 344.3 168.3 369 153.7C393.7 139 418.3 138 443 142.3C467.7 146.7 492.3 156.3 517 172.7C541.7 189 566.3 212 591 220.8C615.7 229.7 640.3 224.3 664.8 215.3C689.3 206.3 713.7 193.7 738.2 181C762.7 168.3 787.3 155.7 812 153.5C836.7 151.3 861.3 159.7 886 158.2C910.7 156.7 935.3 145.3 947.7 139.7L960 134L960 301L947.7 301C935.3 301 910.7 301 886 301C861.3 301 836.7 301 812 301C787.3 301 762.7 301 738.2 301C713.7 301 689.3 301 664.8 301C640.3 301 615.7 301 591 301C566.3 301 541.7 301 517 301C492.3 301 467.7 301 443 301C418.3 301 393.7 301 369 301C344.3 301 319.7 301 295.2 301C270.7 301 246.3 301 221.8 301C197.3 301 172.7 301 148 301C123.3 301 98.7 301 74 301C49.3 301 24.7 301 12.3 301L0 301Z" fill="#e34c67"></path><path d="M0 230L12.3 233.8C24.7 237.7 49.3 245.3 74 249.5C98.7 253.7 123.3 254.3 148 251.7C172.7 249 197.3 243 221.8 244C246.3 245 270.7 253 295.2 249.3C319.7 245.7 344.3 230.3 369 226.7C393.7 223 418.3 231 443 230.5C467.7 230 492.3 221 517 224C541.7 227 566.3 242 591 245.5C615.7 249 640.3 241 664.8 240.5C689.3 240 713.7 247 738.2 252.7C762.7 258.3 787.3 262.7 812 251.3C836.7 240 861.3 213 886 210.2C910.7 207.3 935.3 228.7 947.7 239.3L960 250L960 301L947.7 301C935.3 301 910.7 301 886 301C861.3 301 836.7 301 812 301C787.3 301 762.7 301 738.2 301C713.7 301 689.3 301 664.8 301C640.3 301 615.7 301 591 301C566.3 301 541.7 301 517 301C492.3 301 467.7 301 443 301C418.3 301 393.7 301 369 301C344.3 301 319.7 301 295.2 301C270.7 301 246.3 301 221.8 301C197.3 301 172.7 301 148 301C123.3 301 98.7 301 74 301C49.3 301 24.7 301 12.3 301L0 301Z" fill="#c62368"></path></svg>